<?xml version="1.0" encoding="utf-8"?>
<!-- Generator: Adobe Illustrator 16.0.0, SVG Export Plug-In . SVG Version: 6.00 Build 0)  -->
<!DOCTYPE svg PUBLIC "-//W3C//DTD SVG 1.1//EN" "http://www.w3.org/Graphics/SVG/1.1/DTD/svg11.dtd">
<svg version="1.1" id="Capa_1" xmlns="http://www.w3.org/2000/svg" xmlns:xlink="http://www.w3.org/1999/xlink" x="0px" y="0px"
	 width="150px" height="90px" viewBox="0 0 150 90" enable-background="new 0 0 150 90" xml:space="preserve">
<g>
	<path fill="#67C1B9" d="M86.76,70.246l2.173-6.252c-1.009-0.29-1.964-0.879-2.872-1.787l-5.137,4.643
		c0.985,1.295,2.658,2.347,5.02,3.149C86.217,70.091,86.494,70.17,86.76,70.246z"/>
	<path fill="#67C1B9" d="M91.324,40.8c-0.271-0.008-0.543-0.028-0.813-0.022c-1.821,0.042-3.513,0.458-5.077,1.258
		c-3.21,1.619-4.955,3.982-5.248,7.075c-0.042,0.308-0.065,0.616-0.065,0.932v0.173c0,4.949,2.399,7.885,7.198,8.801
		c1.475,0.283,2.516,0.487,3.13,0.609l2.531-7.295c-1.009-0.199-1.567-0.309-1.668-0.336c-1.97-0.532-2.964-1.181-2.964-1.941
		v-0.115c0-0.219,0.027-0.416,0.071-0.605c0.198-0.525,0.641-0.955,1.351-1.281c0.721-0.324,1.53-0.484,2.424-0.502
		c0.777,0.026,1.521,0.225,2.24,0.584l2.195-6.317c-0.057-0.021-0.109-0.043-0.17-0.063c-1.406-0.472-2.776-0.759-4.111-0.89
		L91.324,40.8z"/>
</g>
<path fill="#C7C5C4" d="M143.188,39.378h-8.171v8.604c-0.113,0.877-0.697,1.5-1.766,1.885c-0.234,0.043-0.619,0.115-1.145,0.215
	c-0.526-0.1-0.911-0.172-1.143-0.215c-1.068-0.385-1.653-1.008-1.77-1.885v-8.604h-8.171v8.603c0,2.519,0.625,4.513,1.868,5.987
	c-1.241,1.426-1.868,3.248-1.868,5.475v10.178h8.216l0.012-10.041v-0.113c0-0.747,0.958-1.385,2.854-1.912
	c1.899,0.527,2.854,1.165,2.854,1.912v0.113l0.012,10.041h8.216V59.443c0-2.227-0.626-4.05-1.867-5.476
	c1.243-1.475,1.867-3.468,1.867-5.986V39.378z"/>
<path fill="#67C1B9" d="M20.445,63.602c6.445,0,5.97-7.572,5.97-7.572v-14.01h7.727v28.72c0,4.301-1.478,7.915-4.436,10.851
	c-2.955,2.927-6.581,4.395-10.898,4.395v-7.71c2.098,0,3.893-0.737,5.376-2.202c1.49-1.47,2.231-3.244,2.231-5.34v-1.37
	c-1.572,1.085-3.243,1.962-5.943,1.962c-4.272,0-7.052-0.555-10.02-3.52c-2.967-2.959-3.641-7.498-3.641-11.756v-14.03h7.723v14.01
	C14.535,56.029,14.119,63.602,20.445,63.602z"/>
<rect x="38.061" y="25.246" fill="#67C1B9" width="7.72" height="45.201"/>
<path fill="#67C1B9" d="M78.995,56.023c0,4.263-1.478,7.879-4.424,10.852c-2.955,2.965-6.56,4.449-10.818,4.449
	c-4.299,0-7.928-1.477-10.878-4.422c-2.952-2.95-4.427-6.579-4.427-10.879c0-4.264,1.484-7.868,4.457-10.816
	c2.967-2.952,6.578-4.427,10.848-4.427c4.258,0,7.863,1.475,10.818,4.427C77.518,48.155,78.995,51.76,78.995,56.023 M71.272,56.023
	c0-2.055-0.742-3.82-2.226-5.295c-1.477-1.484-3.243-2.222-5.293-2.222c-2.092,0-3.878,0.731-5.359,2.188
	c-1.48,1.464-2.222,3.242-2.222,5.328s0.742,3.875,2.222,5.354c1.481,1.483,3.267,2.224,5.359,2.224c2.086,0,3.863-0.74,5.32-2.224
	C70.542,59.898,71.272,58.109,71.272,56.023"/>
<path fill="#C7C5C4" d="M109.363,39.378h7.834v30.243h-7.834V39.378z"/>
<path fill="#C7C5C4" d="M117.77,29.713c0,2.482-2.009,4.494-4.489,4.494c-2.478,0-4.492-2.012-4.492-4.494
	c0-2.478,2.015-4.489,4.492-4.489C115.761,25.224,117.77,27.235,117.77,29.713z"/>
<g>
	<path fill="#C7C5C4" d="M98.721,46.483L98.721,46.483c0.656,0.329,1.294,0.795,1.904,1.407l5.137-4.642
		c-0.962-1.263-2.582-2.293-4.852-3.086L98.721,46.483z"/>
	<path fill="#C7C5C4" d="M95.373,69.301c0.268,0.007,0.535,0.025,0.799,0.02c1.824-0.039,3.52-0.458,5.08-1.256
		c3.207-1.619,4.951-3.983,5.252-7.074c0.037-0.307,0.059-0.618,0.059-0.934v-0.172c0-4.949-2.395-7.885-7.195-8.8l-2.104-0.409
		l-2.531,7.296l0.641,0.132c1.971,0.534,2.965,1.183,2.965,1.942v0.116c0,0.219-0.023,0.418-0.071,0.605
		c-0.202,0.524-0.644,0.953-1.353,1.279c-0.719,0.326-1.529,0.488-2.419,0.503c-0.437-0.015-0.863-0.089-1.281-0.208l0,0
		l-2.166,6.254l3.293,0.639L95.373,69.301z"/>
</g>
<g>
	<g>
		<path fill="#C7C5C4" d="M8.269,19.626c0.015,0.028,0.053,0.05,0.107,0.068c0-0.018-0.045-0.044-0.134-0.08
			c0-0.018,0-0.037,0-0.055c-0.018,0-0.026-0.009-0.026-0.028v0.054C8.233,19.585,8.25,19.601,8.269,19.626z M8.618,9.412h0.244
			C8.809,9.396,8.785,9.286,8.785,9.087H8.618V9.412z"/>
		<path fill="#C7C5C4" d="M7.892,20.123l2.3-0.106l0.106-5.43l0.19-0.024c0.321-0.037,0.673-0.056,1.05-0.056
			c0.312,0,0.769,0.015,1.38,0.04c0.596,0.029,1.047,0.041,1.329,0.041c1.077,0,1.917-0.145,2.499-0.436
			c0.753-0.368,1.273-2.037,1.563-3.018c0.101-0.345,0.154-0.688,0.154-1.018c0-0.435-0.113-0.876-0.332-1.308
			c-0.036-0.074-0.374-0.621-0.611-0.995L17.137,8.28l0.057-0.698c0.008-0.133-0.036-0.157-0.101-0.175
			c-0.107-0.033-0.303-0.09-0.395-0.22c-0.288-0.151-0.908-0.315-2.261-0.315L11.93,6.9l-0.175,0.173l-0.133-0.053
			c-0.383-0.151-1.021-0.229-1.896-0.229H7.892V20.123z M10.594,12.078h-0.219V9.572h0.219c0.324,0,0.905-0.009,1.754-0.028
			c0.792-0.032,1.397-0.042,1.774-0.026c0.593,0.018,1.065,0.095,1.395,0.231l0.056,0.021l0.036,0.046
			c0.101,0.126,0.154,0.283,0.154,0.463c0,0.607-0.383,1.755-0.611,1.797L10.594,12.078z"/>
	</g>
	<g>
		<path fill="#C7C5C4" d="M23.252,10.535c-0.154,0.12-0.371,0.18-0.65,0.18c-0.362,0-0.448,0.047-0.457,0.052l-0.056,0.023
			c-1.718,0.453-2.784,1.456-3.252,3.068c-0.136,0.451-0.21,0.92-0.21,1.4c0,1.252,0.41,2.339,1.22,3.231
			c0.697,0.787,1.537,1.236,2.504,1.337c0.427,0.129,0.825,0.19,1.223,0.19c1.3,0,2.379-0.549,3.296-1.679
			c0.49-0.763,0.86-1.45,1.095-2.025c0.003-0.16,0.006-0.54,0.021-1.139c0-0.429-0.054-0.766-0.148-0.994
			c-0.403-1.438-1.205-2.464-2.388-3.08c-0.255-0.136-0.656-0.252-1.193-0.344C23.795,10.671,23.463,10.601,23.252,10.535z
			 M23.145,17.992c-0.332,0-0.67-0.057-0.997-0.172l-0.05-0.027c-0.707-0.495-1.184-1.192-1.418-2.074l-0.003-0.063
			c0.039-1.463,0.591-2.396,1.638-2.771c0.184-0.125,0.51-0.215,0.941-0.255c0.424-0.046,0.768-0.009,1.042,0.093l0.083,0.052
			l0.285,0.285c0.059,0.058,0.115,0.083,0.184,0.083h0.077l0.056,0.046c0.535,0.416,0.857,1.094,0.953,2.018
			c0.077,0.645-0.237,1.326-0.932,2.019C24.496,17.736,23.867,17.992,23.145,17.992z"/>
	</g>
	<g>
		<path fill="#C7C5C4" d="M36.8,20.123l0.029,0.005c0.202,0.032,0.41,0.05,0.615,0.05c1.133,0,2.145-0.513,3.005-1.522l-0.024-0.027
			l0.068-0.14c0.306-0.596,0.508-1.053,0.596-1.358v-2.939c0-1.209-0.029-2.138-0.088-2.827h-1.555
			c-0.193,0.678-0.294,1.558-0.294,2.62l-0.012,3.001l-0.296,0.761l-0.047,0.04c-0.564,0.417-1.131,0.565-1.662,0.473l-0.066-0.023
			c-0.531-0.282-0.857-0.715-0.976-1.285l-0.006-5.599l-1.706-0.086l-0.234,6.047c-0.015,0.094-0.047,0.188-0.125,0.269l0.08,0.079
			l-0.258,0.142c-0.314,0.171-0.469,0.244-0.564,0.276c-0.16,0.224-0.344,0.276-0.484,0.276c-0.11,0-0.229-0.034-0.353-0.1
			c-0.51-0.077-0.973-0.425-1.356-1.044l-0.033-0.049v-0.061l-0.157-5.938l-1.584-0.087c0.003,0.475-0.018,1.357-0.062,2.59
			c-0.054,1.196-0.036,2.127,0.053,2.776l0.012,0.108l-0.193,0.193c0.104,0.991,0.484,1.779,1.134,2.35
			c0.914,0.803,2.074,1.068,3.359,0.779c0.106-0.186,0.264-0.243,0.457-0.181c0.151-0.132,0.314-0.187,0.43-0.156
			c0.41-0.36,0.736-0.406,1.499,0.247c0.306,0.256,0.572,0.39,0.765,0.343L36.8,20.123z"/>
	</g>
	<g>
		<path fill="#C7C5C4" d="M46.609,19.864l0.101,0.181c0.012,0.019,0.029,0.047,0.044,0.078c0.288-0.01,0.795-0.072,1.51-0.182
			l0.884-0.469c0.279-0.146,0.48-0.298,0.599-0.454c-0.294-0.457-0.694-0.935-1.193-1.424c-0.08,0.084-0.169,0.153-0.264,0.205
			c-0.048,0.03-0.154,0.091-0.484,0.254l-0.051,0.018c-0.35,0.076-0.656,0.111-0.914,0.111c-0.67,0-1.374-0.377-2.08-1.123
			l-0.148-0.155l0.499-0.493l0.104,0.009c0.579,0.05,1.587,0.053,3.006,0.025c1.311-0.041,2.371-0.021,3.151,0.039
			c0.133-0.396,0.201-0.822,0.201-1.271c0-0.948-0.255-1.715-0.757-2.279l-0.979-1.135c-0.89-0.635-1.878-0.975-2.887-0.975
			c-0.436,0-0.893,0.067-1.364,0.193c-0.033,0.16-0.11,0.251-0.172,0.304l-0.074,0.057l-0.092-0.011
			c-0.213-0.031-0.51,0.073-0.848,0.309l-0.825,0.666c-0.783,0.769-1.192,1.797-1.192,3.04c0,0.568,0.089,1.126,0.261,1.659
			c0.154,0.44,0.276,0.78,0.362,1.012c0.483,0.641,1.217,1.221,2.184,1.72c0.582,0.205,1.044,0.275,1.232,0.185L46.609,19.864z
			 M49.093,14.483l-0.225-0.006c-1.511-0.034-2.745-0.055-3.671-0.055h-0.142l-0.057-0.125c-0.036-0.067-0.047-0.135-0.047-0.205
			c0-0.188,0.104-0.378,0.314-0.568l0.555-0.521l0.107,0.105c0.572-0.322,1.412-0.304,2.24-0.006l0.051,0.028
			c0.599,0.43,0.875,0.788,0.875,1.126V14.483z"/>
	</g>
	<g>
		<path fill="#C7C5C4" d="M62.299,19.864l0.104,0.181c0.012,0.019,0.029,0.047,0.041,0.078c0.288-0.01,0.798-0.072,1.511-0.182
			l0.884-0.469c0.278-0.146,0.48-0.298,0.6-0.454c-0.294-0.457-0.695-0.935-1.193-1.424c-0.078,0.084-0.169,0.153-0.264,0.205
			c-0.048,0.03-0.154,0.091-0.481,0.254l-0.053,0.018c-0.347,0.076-0.653,0.111-0.911,0.111c-0.674,0-1.374-0.377-2.081-1.123
			l-0.151-0.155l0.498-0.493l0.104,0.009c0.582,0.05,1.587,0.053,3.006,0.025c1.314-0.041,2.374-0.021,3.151,0.039
			c0.137-0.396,0.202-0.822,0.202-1.271c0-0.948-0.252-1.715-0.757-2.279l-0.977-1.135c-0.893-0.635-1.878-0.975-2.89-0.975
			c-0.436,0-0.89,0.067-1.365,0.193c-0.029,0.16-0.106,0.251-0.172,0.304l-0.074,0.057l-0.089-0.011
			c-0.216-0.031-0.513,0.073-0.849,0.309l-0.828,0.666c-0.783,0.769-1.193,1.797-1.193,3.04c0,0.568,0.089,1.126,0.264,1.659
			c0.154,0.44,0.276,0.78,0.359,1.012c0.484,0.641,1.216,1.221,2.184,1.72c0.582,0.205,1.047,0.275,1.234,0.185L62.299,19.864z
			 M64.783,14.483l-0.223-0.006c-1.513-0.034-2.748-0.055-3.673-0.055h-0.143l-0.056-0.125c-0.033-0.067-0.047-0.135-0.047-0.205
			c0-0.188,0.104-0.378,0.314-0.568l0.555-0.521l0.107,0.105c0.575-0.322,1.412-0.304,2.24-0.006l0.05,0.028
			c0.6,0.43,0.875,0.788,0.875,1.126V14.483z"/>
	</g>
	<g>
		<path fill="#C7C5C4" d="M52.781,20.051l0.285,0.019l0.047-0.296l0.285,0.154c0.068,0.037,0.125,0.084,0.163,0.142h0.712
			c0.33,0,0.454-0.064,0.454-0.105c0-0.018-0.006-0.086-0.098-0.234l-0.032-0.051v-0.058c-0.042-0.913-0.015-1.966,0.08-3.218
			l0.267-3.329c0.086-0.349,0.341-0.74,1.119-0.825c0.285-0.013,0.57-0.033,0.857-0.056c0-0.122,0.048-0.263,0.146-0.45
			c0.026-0.049,0.053-0.095,0.065-0.135l-0.08-0.18c-0.062-0.125-0.065-0.271-0.014-0.432l0.029-0.06
			c0.026-0.039,0.045-0.066,0.059-0.087c-0.014-0.009-0.033-0.022-0.053-0.037l-0.214-0.148l0.08-0.084
			C56.757,10.527,56.543,10.5,56.3,10.5h-0.925c-0.303,0.132-0.555,0.237-0.771,0.313l0.065,0.068l-0.27,0.138
			c-0.875,0.435-1.35,1.164-1.448,2.224v0.09c-0.018,0.954-0.032,1.917-0.056,2.887c0,0.07-0.024,0.157-0.095,0.314
			c-0.06,0.125-0.065,0.166-0.065,0.166c0,0.021,0,0.028,0.042,0.044l0.127,0.067l-0.009,0.144c-0.042,0.733-0.098,1.74-0.05,2.031
			l0.009,0.058l-0.023,0.056c-0.08,0.211-0.125,0.395-0.125,0.54C52.704,19.758,52.73,19.896,52.781,20.051z"/>
	</g>
	<g>
		<path fill="#C7C5C4" d="M87.045,17.875c0.16,0.124,0.359,0.36,0.608,0.735c0.241,0.358,0.487,0.604,0.718,0.729
			c0.611,0.51,1.428,0.756,2.469,0.756c0.811,0,1.502-0.14,2.071-0.411c0.356-0.224,0.771-0.5,1.249-0.831l-0.039-0.058l0.137-0.129
			c0.525-0.491,0.887-1.129,1.071-1.893l0.032-0.067c0.03-0.049,0.045-0.119,0.045-0.205l0.08-0.988
			c-0.237-1.178-0.306-1.438-0.329-1.488c-0.347-0.869-0.92-1.586-1.7-2.148c-0.757-0.538-1.566-0.811-2.406-0.811h-0.074
			c-0.697,0.019-1.439,0.162-2.198,0.424l-0.234,0.077l-0.057-0.234c-0.128-0.554-0.192-1.315-0.192-2.327V7.079
			c-0.517-0.091-1.166-0.097-1.746,0.003c0.027,0.917,0.027,2.012-0.008,3.259c-0.051,1.613-0.08,2.753-0.08,3.212
			c0,1.188,0.064,2.326,0.184,3.378C86.822,17.332,86.95,17.647,87.045,17.875z M91.003,18.264c-0.4,0-0.78-0.059-1.124-0.173
			c-1.068-0.617-1.584-1.372-1.584-2.264l0.192-1.174c0.077-0.476,0.403-0.906,0.955-1.283l0.154-0.102l0.071,0.074
			c0.418-0.293,0.885-0.442,1.389-0.442c0.863,0,1.674,0.561,2.406,1.669l0.032,0.093c0.169,1.306,0.024,2.211-0.448,2.766
			C92.588,17.984,91.899,18.264,91.003,18.264z"/>
	</g>
	<g>
		<path fill="#C7C5C4" d="M77.236,16.931c0.121-1.052,0.187-2.189,0.187-3.378c0-0.458-0.032-1.599-0.083-3.212
			c-0.033-1.248-0.033-2.343-0.009-3.259c-0.575-0.1-1.229-0.094-1.745-0.003v1.928c0,1.012-0.062,1.773-0.193,2.327l-0.057,0.234
			l-0.231-0.077c-0.763-0.263-1.501-0.405-2.201-0.424h-0.072c-0.84,0-1.65,0.273-2.409,0.811c-0.777,0.563-1.35,1.279-1.7,2.148
			c-0.021,0.05-0.089,0.31-0.327,1.488l0.078,0.988c0,0.086,0.018,0.156,0.047,0.205l0.029,0.067
			c0.187,0.764,0.549,1.402,1.071,1.893l0.139,0.129l-0.038,0.058c0.478,0.331,0.89,0.606,1.249,0.831
			c0.567,0.271,1.261,0.411,2.071,0.411c1.041,0,1.854-0.247,2.466-0.756c0.234-0.125,0.48-0.371,0.721-0.729
			c0.248-0.375,0.447-0.611,0.605-0.735C76.93,17.647,77.061,17.332,77.236,16.931z M70.833,17.428
			c-0.469-0.555-0.615-1.46-0.449-2.766l0.036-0.093c0.733-1.108,1.54-1.669,2.406-1.669c0.504,0,0.97,0.148,1.389,0.442
			l0.071-0.074l0.151,0.102c0.555,0.377,0.878,0.807,0.955,1.283l0.193,1.174c0,0.892-0.516,1.646-1.584,2.264
			c-0.345,0.114-0.724,0.173-1.122,0.173C71.984,18.264,71.296,17.984,70.833,17.428z"/>
	</g>
	<g>
		<path fill="#C7C5C4" d="M104.283,23.467l0.271,0.263c0.038,0.037,0.068,0.075,0.092,0.112l0.944-0.077c0-0.006,0-0.009,0-0.013
			c-0.018-0.142,0.012-0.259,0.088-0.342c0.019-0.021,0.039-0.043,0.072-0.065v-0.403c-0.021-0.262,0.006-0.477,0.08-0.629
			l0.029-0.599c0-0.292-0.113-0.401-0.199-0.454l-0.184-0.119l0.119-0.184c0.057-0.092,0.15-0.136,0.236-0.16
			c0.148-4.745,0.209-7.468,0.185-8.32l-0.003-0.065l0.039-0.06c0.148-0.234,0.086-0.341,0.064-0.377
			c-0.068-0.116-0.143-0.317-0.035-0.558c-0.148-0.045-0.422-0.089-0.917-0.089c-0.223,0-0.472,0.008-0.754,0.025
			c-0.041,0.448-0.062,1.052-0.062,1.767v0.326c0,1.256-0.054,2.163-0.166,2.77c-0.161,0.776-0.825,1.473-1.979,2.078l-0.083,0.024
			c-1.157,0.105-2.089-0.18-2.798-0.875l-0.038-0.048c-0.333-0.589-0.543-1.076-0.621-1.443l-0.009-0.031l0.003-0.031
			c0.023-0.274,0.048-0.547,0.084-0.823c0-0.148-0.03-0.378-0.164-0.458l-0.187-0.106l0.104-0.188
			c0.045-0.077,0.099-0.135,0.173-0.172c0.062-1.231,0.086-2.219,0.076-2.945l-1.75-0.067c-0.148,0.579-0.086,0.795-0.055,0.863
			l0.033,0.06l-0.012,0.065c-0.033,0.28-0.051,1.411-0.051,3.356l-0.018,0.089l-0.145,0.332c0.115,0.221,0.207,0.53,0.279,0.932
			c0.073,0.397,0.186,0.673,0.332,0.82l0.047,0.046l0.012,0.063c0.018,0.086,0.084,0.236,0.275,0.474
			c0.066,0.075,0.123,0.146,0.17,0.215l0.009-0.012l0.371,0.478c0.623,0.806,1.646,1.213,3.047,1.213
			c0.392,0,0.751-0.046,1.065-0.141c0.137-0.095,0.314-0.119,0.555-0.074c0.098,0.02,0.151-0.004,0.157-0.021l0.026-0.051
			l0.048-0.029c0.112-0.071,0.22-0.105,0.332-0.105c0.128,0,0.317,0.052,0.487,0.3l0.038,0.055v3.617
			c0.057,0.027,0.112,0.065,0.185,0.123c0.006,0.003,0.008,0.005,0.008,0.008L104.283,23.467z"/>
	</g>
</g>
</svg>
